<?xml version="1.0" encoding="UTF-8"?>
<svg fill="none" xmlns="http://www.w3.org/2000/svg" viewBox="0 0 26.5 22.14">
  <path class="cls-1" d="M18.7,20.89v-2.18c0-1.16-.46-2.27-1.28-3.09-.82-.82-1.93-1.28-3.09-1.28H5.61c-1.16,0-2.27,.46-3.09,1.28-.82,.82-1.28,1.93-1.28,3.09v2.18m24,0v-2.18c0-.97-.32-1.91-.91-2.67-.59-.76-1.42-1.31-2.36-1.55M17.61,1.39c.94,.24,1.77,.79,2.36,1.55,.59,.77,.92,1.71,.92,2.68s-.32,1.91-.92,2.68c-.59,.77-1.43,1.31-2.36,1.55m-3.27-4.23c0,2.41-1.95,4.36-4.36,4.36s-4.36-1.95-4.36-4.36S7.57,1.25,9.98,1.25s4.36,1.95,4.36,4.36Z" stroke="#FFF" stroke-width="1.6" stroke-linecap="round" stroke-linejoin="round"/>
</svg>