<?xml version="1.0" encoding="UTF-8"?>
<svg id="Layer_1" data-name="Layer 1" xmlns="http://www.w3.org/2000/svg" viewBox="0 0 26.5 22.07">
  <defs>
    <style>
      .cls-1 {
        fill: none;
        stroke: none;
      }
    </style>
  </defs>
  <path class="cls-1" d="M25.25,1.26c-1.04,.74-2.2,1.3-3.43,1.67-.66-.76-1.53-1.29-2.5-1.53-.97-.24-1.99-.18-2.93,.18-.94,.36-1.74,.99-2.3,1.82-.56,.83-.86,1.81-.84,2.81v1.09c-1.92,.05-3.82-.38-5.53-1.24-1.71-.86-3.19-2.13-4.29-3.7,0,0-4.36,9.82,5.45,14.18-2.25,1.53-4.92,2.29-7.64,2.18,9.82,5.45,21.82,0,21.82-12.55,0-.3-.03-.61-.09-.91,1.11-1.1,1.9-2.48,2.27-4Z"/>
</svg>