<?xml version="1.0" encoding="UTF-8"?>
<svg fill="none" xmlns="http://www.w3.org/2000/svg" viewBox="0 0 26.5 25.36">
  <path class="cls-1" d="M19.54,9.25h1.14c1.21,0,2.38,.48,3.23,1.34,.86,.86,1.34,2.02,1.34,3.23s-.48,2.38-1.34,3.23c-.86,.86-2.02,1.34-3.23,1.34h-1.14m0-9.14H1.25v10.29c0,1.21,.48,2.38,1.34,3.23,.86,.86,2.02,1.34,3.23,1.34H14.96c1.21,0,2.38-.48,3.23-1.34,.86-.86,1.34-2.02,1.34-3.23V9.25ZM5.82,1.25v3.43M10.39,1.25v3.43M14.96,1.25v3.43" stroke="#FFF" stroke-width="1.6" stroke-linecap="round" stroke-linejoin="round"/>
</svg>