<?xml version="1.0" encoding="UTF-8"?>
<svg fill="none" xmlns="http://www.w3.org/2000/svg" viewBox="0 0 24.5 24.5">
  <path class="cls-1" d="M12.25,15.25c1.66,0,3-1.34,3-3s-1.34-3-3-3-3,1.34-3,3,1.34,3,3,3Z" stroke="#FFF" stroke-width="1.6" stroke-linecap="round" stroke-linejoin="round"/>
  <path class="cls-1" d="M19.65,15.25c-.13,.3-.17,.64-.11,.96,.06,.32,.21,.62,.44,.86l.06,.06c.19,.19,.33,.41,.43,.65,.1,.24,.15,.5,.15,.77s-.05,.52-.15,.77c-.1,.24-.25,.46-.43,.65-.19,.19-.41,.33-.65,.43-.24,.1-.5,.15-.77,.15s-.52-.05-.77-.15c-.24-.1-.46-.25-.65-.43l-.06-.06c-.24-.23-.53-.39-.86-.44s-.66-.02-.96,.11c-.3,.13-.55,.34-.73,.61-.18,.27-.27,.58-.27,.9v.17c0,.53-.21,1.04-.59,1.41-.38,.38-.88,.59-1.41,.59s-1.04-.21-1.41-.59c-.38-.38-.59-.88-.59-1.41v-.09c0-.33-.11-.65-.31-.92-.19-.27-.46-.47-.77-.59-.3-.13-.64-.17-.96-.11-.32,.06-.62,.21-.86,.44l-.06,.06c-.19,.19-.41,.33-.65,.43-.24,.1-.5,.15-.77,.15s-.52-.05-.77-.15c-.24-.1-.46-.25-.65-.43-.19-.19-.33-.41-.43-.65s-.15-.5-.15-.77,.05-.52,.15-.77,.25-.46,.43-.65l.06-.06c.23-.24,.39-.53,.44-.86,.06-.32,.02-.66-.11-.96-.13-.3-.34-.55-.61-.73-.27-.18-.58-.27-.9-.27h-.17c-.53,0-1.04-.21-1.41-.59-.38-.38-.59-.88-.59-1.41s.21-1.04,.59-1.41c.38-.38,.88-.59,1.41-.59h.09c.33,0,.65-.11,.92-.31,.27-.19,.47-.46,.59-.77,.13-.3,.17-.64,.11-.96-.06-.32-.21-.62-.44-.86l-.06-.06c-.19-.19-.33-.41-.43-.65-.1-.24-.15-.5-.15-.77s.05-.52,.15-.77c.1-.24,.25-.46,.43-.65,.19-.19,.41-.33,.65-.43,.24-.1,.5-.15,.77-.15s.52,.05,.77,.15c.24,.1,.46,.25,.65,.43l.06,.06c.24,.23,.54,.39,.86,.44,.32,.06,.66,.02,.96-.11h.08c.3-.13,.55-.34,.73-.61,.18-.27,.27-.58,.27-.9v-.17c0-.53,.21-1.04,.59-1.41,.38-.38,.88-.59,1.41-.59s1.04,.21,1.41,.59c.38,.38,.59,.88,.59,1.41v.09c0,.32,.1,.64,.27,.9,.18,.27,.43,.48,.73,.61,.3,.13,.64,.17,.96,.11,.32-.06,.62-.21,.86-.44l.06-.06c.19-.19,.41-.33,.65-.43,.24-.1,.5-.15,.77-.15s.52,.05,.77,.15c.24,.1,.46,.25,.65,.43,.19,.19,.33,.41,.43,.65,.1,.24,.15,.5,.15,.77s-.05,.52-.15,.77c-.1,.24-.25,.46-.43,.65l-.06,.06c-.23,.24-.39,.54-.44,.86-.06,.32-.02,.66,.11,.96v.08c.13,.3,.34,.55,.61,.73,.27,.18,.58,.27,.9,.27h.17c.53,0,1.04,.21,1.41,.59,.38,.38,.59,.88,.59,1.41s-.21,1.04-.59,1.41c-.38,.38-.88,.59-1.41,.59h-.09c-.32,0-.64,.1-.9,.27-.27,.18-.48,.43-.61,.73Z" stroke="#FFF" stroke-width="1.6" stroke-linecap="round" stroke-linejoin="round"/>
</svg>