<?xml version="1.0" encoding="UTF-8"?>
<svg id="Layer_1" data-name="Layer 1" xmlns="http://www.w3.org/2000/svg" viewBox="0 0 26.5 26.5">
  <defs>
    <style>
      .cls-1 {
        fill: none;
        stroke: none;
      }
    </style>
  </defs>
  <path class="cls-1" d="M25.25,13.25c0,6.63-5.37,12-12,12m12-12c0-6.63-5.37-12-12-12m12,12H1.25m12,12c-6.63,0-12-5.37-12-12m12,12c3-3.29,4.71-7.55,4.8-12-.09-4.45-1.8-8.71-4.8-12m0,24c-3-3.29-4.71-7.55-4.8-12,.09-4.45,1.8-8.71,4.8-12M1.25,13.25C1.25,6.62,6.62,1.25,13.25,1.25"/>
</svg>