<?xml version="1.0" encoding="UTF-8"?>
<svg id="Layer_1" data-name="Layer 1" xmlns="http://www.w3.org/2000/svg" viewBox="0 0 64 64">
  <defs>
    <style>
      .cls-1 {
        fill: #4285f4;
      }

      .cls-2 {
        fill: #fbbc05;
      }

      .cls-3 {
        fill: none;
      }

      .cls-4 {
        fill: #34a853;
      }

      .cls-5 {
        fill: #ea4335;
      }
    </style>
  </defs>
  <path class="cls-1" d="M62.72,32.73c0-2.27-.2-4.45-.58-6.55h-30.14v12.39h17.22c-.76,3.99-3.03,7.36-6.43,9.63v8.06h10.39c6.05-5.59,9.54-13.79,9.54-23.53Z"/>
  <path class="cls-4" d="M32,64c8.64,0,15.88-2.85,21.18-7.74l-10.39-8.06c-2.85,1.92-6.49,3.08-10.79,3.08-8.32,0-15.39-5.61-17.92-13.18H3.43v8.26c5.27,10.44,16.06,17.63,28.57,17.63Z"/>
  <path class="cls-2" d="M14.08,38.08c-.64-1.92-1.02-3.96-1.02-6.08s.38-4.16,1.02-6.08v-8.26H3.43C1.25,21.96,0,26.82,0,32s1.25,10.04,3.43,14.34l8.29-6.46s2.36-1.8,2.36-1.8Z"/>
  <path class="cls-5" d="M32,12.74c4.71,0,8.9,1.63,12.25,4.77l9.16-9.16C47.85,3.17,40.64,0,32,0,19.49,0,8.7,7.19,3.43,17.66l10.65,8.26c2.53-7.56,9.6-13.18,17.92-13.18Z"/>
  <path class="cls-3" d="M0,0H64V64H0V0Z"/>
</svg>