<?xml version="1.0" encoding="UTF-8"?>
<svg id="Layer_1" data-name="Layer 1" xmlns="http://www.w3.org/2000/svg" viewBox="0 0 25.62 25.6">
  <defs>
    <style>
      .cls-1 {
        fill: none;
        stroke: none;
      }
    </style>
  </defs>
  <path class="cls-1" d="M10.4,14.01c.52,.69,1.18,1.27,1.94,1.68,.76,.42,1.6,.66,2.46,.72,.86,.06,1.73-.06,2.54-.37,.81-.3,1.55-.78,2.16-1.39l3.62-3.62c1.1-1.14,1.71-2.66,1.7-4.25-.01-1.58-.65-3.1-1.77-4.22-1.12-1.12-2.63-1.76-4.22-1.77-1.58-.01-3.11,.6-4.25,1.7l-2.08,2.07m2.72,7.03c-.52-.69-1.18-1.27-1.94-1.68-.76-.42-1.6-.66-2.46-.72-.86-.06-1.73,.06-2.54,.37-.81,.3-1.55,.78-2.16,1.39l-3.62,3.62c-1.1,1.14-1.71,2.66-1.7,4.25,.01,1.58,.65,3.1,1.77,4.22,1.12,1.12,2.63,1.76,4.22,1.77,1.58,.01,3.11-.6,4.25-1.7l2.07-2.07"/>
</svg>