<?xml version="1.0" encoding="UTF-8"?>
<svg fill="none" xmlns="http://www.w3.org/2000/svg" viewBox="0 0 26.12 26.5">
  <path class="cls-1" d="M7.25,12.05L12.05,1.25c.95,0,1.87,.38,2.55,1.05s1.05,1.59,1.05,2.55v4.8h6.79c.35,0,.69,.07,1.01,.21,.32,.14,.6,.35,.83,.61,.23,.26,.4,.57,.49,.91,.1,.33,.12,.69,.07,1.03l-1.66,10.8c-.09,.57-.38,1.09-.82,1.47-.44,.37-1,.58-1.58,.57H7.25m0-13.2v13.2m0-13.2H3.65c-.64,0-1.25,.25-1.7,.7-.45,.45-.7,1.06-.7,1.7v8.4c0,.64,.25,1.25,.7,1.7,.45,.45,1.06,.7,1.7,.7h3.6" stroke="#FFF" stroke-width="1.6" stroke-linecap="round" stroke-linejoin="round"/>
</svg>